<svg width="11" height="21" viewBox="0 0 11 21" fill="none" xmlns="http://www.w3.org/2000/svg">
<path d="M8.76367 0.323375C9.13736 -0.0832877 9.76996 -0.110017 10.1766 0.263672C10.5833 0.637362 10.61 1.26996 10.2363 1.67663L8.76367 0.323375ZM1 10.25L0.263673 10.9266C-0.0878906 10.544 -0.0878906 9.95596 0.263673 9.57337L1 10.25ZM10.2363 18.8234C10.61 19.23 10.5833 19.8626 10.1766 20.2363C9.76996 20.61 9.13736 20.5833 8.76367 20.1766L10.2363 18.8234ZM10.2363 1.67663L1.73633 10.9266L0.263673 9.57337L8.76367 0.323375L10.2363 1.67663ZM1.73633 9.57337L10.2363 18.8234L8.76367 20.1766L0.263673 10.9266L1.73633 9.57337Z" fill="white"/>
</svg>
