<svg width="11" height="21" viewBox="0 0 11 21" fill="none" xmlns="http://www.w3.org/2000/svg">
<path d="M1.73633 0.323375C1.36264 -0.0832877 0.730037 -0.110017 0.323375 0.263672C-0.0832877 0.637362 -0.110017 1.26996 0.263672 1.67663L1.73633 0.323375ZM9.5 10.25L10.2363 10.9266C10.5879 10.544 10.5879 9.95596 10.2363 9.57337L9.5 10.25ZM0.263672 18.8234C-0.110017 19.23 -0.0832877 19.8626 0.323375 20.2363C0.730037 20.61 1.36264 20.5833 1.73633 20.1766L0.263672 18.8234ZM0.263672 1.67663L8.76367 10.9266L10.2363 9.57337L1.73633 0.323375L0.263672 1.67663ZM8.76367 9.57337L0.263672 18.8234L1.73633 20.1766L10.2363 10.9266L8.76367 9.57337Z" fill="white"/>
</svg>
