<?xml version="1.0" encoding="UTF-8"?>
<!DOCTYPE svg PUBLIC "-//W3C//DTD SVG 1.1//EN" "http://www.w3.org/Graphics/SVG/1.1/DTD/svg11.dtd">
<!-- Creator: CorelDRAW 2019 (64-Bit) -->
<svg xmlns="http://www.w3.org/2000/svg" xml:space="preserve" width="187.971mm" height="63.0578mm" version="1.1" style="shape-rendering:geometricPrecision; text-rendering:geometricPrecision; image-rendering:optimizeQuality; fill-rule:evenodd; clip-rule:evenodd"
viewBox="0 0 2688.65 901.95"
 xmlns:xlink="http://www.w3.org/1999/xlink"
 xmlns:xodm="http://www.corel.com/coreldraw/odm/2003">
 <defs>
  <style type="text/css">
   <![CDATA[
    .fil0 {fill:#FEFEFE;fill-rule:nonzero}
   ]]>
  </style>
 </defs>
 <g id="Слой_x0020_1">
  <metadata id="CorelCorpID_0Corel-Layer"/>
  <g id="_1997723486160">
   <path class="fil0" d="M1121.02 407.22l50.9 0 0 -254.51 -50.9 0 0 50.89 -50.89 0 0 50.9 50.89 0 0 152.71zm-203.6 0l50.9 0 0 -50.9 50.9 0 0 -50.9 -50.9 0 0 -152.7 -50.9 0 0 254.51zm50.9 -356.31l50.9 0 0 -50.9 -50.9 0 0 50.9zm50.9 254.5l50.9 0 0 -50.9 -50.9 0 0 50.9zm0 -203.6l50.9 0 0 -50.9 -50.9 0 0 50.9zm50.9 -50.9l50.89 0 0 -50.9 -50.89 0 0 50.9zm0 0z"/>
   <path class="fil0" d="M297.15 406.84l49.51 0 0 -99.03 148.52 0 0 99.03 49.51 0 0 -247.55 -49.51 0 0 99.01 -148.52 0 0 -99.01 -49.51 0 0 247.55zm0 0z"/>
   <path class="fil0" d="M602.29 406.84l247.55 0 0 -49.51 -198.04 0 0 -49.51 148.53 0 0 -49.51 -148.53 0 0 -49.51 198.04 0 0 -49.5 -247.55 0 0 247.55zm0 0z"/>
   <path class="fil0" d="M1410.6 406.84l49.51 0 0 -247.55 -49.51 0 0 49.5 -49.5 0 0 49.51 49.5 0 0 148.54zm-198.04 0l49.51 0 0 -148.54 49.51 0 0 -49.51 -49.51 0 0 -49.5 -49.51 0 0 247.55zm99.03 -99.03l49.51 0 0 -49.51 -49.51 0 0 49.51zm0 0z"/>
   <path class="fil0" d="M1517.7 406.84l49.51 0 0 -49.51 148.52 0 0 49.51 49.51 0 0 -198.05 -49.51 0 0 99.02 -148.52 0 0 -99.02 -49.51 0 0 198.05zm49.51 -198.05l148.52 0 0 -49.5 -148.52 0 0 49.5zm0 0z"/>
   <path class="fil0" d="M1822.84 406.84l49.51 0 0 -49.51 148.52 0 0 -49.51 -148.52 0 0 -99.02 148.52 0 0 -49.5 -198.04 0 0 247.55zm198.04 -99.03l49.51 0 0 -99.02 -49.51 0 0 99.02zm0 0z"/>
   <path class="fil0" d="M2127.97 406.84l49.51 0 0 -99.03 99.03 0 0 -49.51 -99.03 0 0 -99.01 -49.51 0 0 247.55zm148.54 -49.51l49.5 0 0 -49.51 -49.5 0 0 49.51zm0 -99.03l49.5 0 0 -49.51 -49.5 0 0 49.51zm49.5 148.54l49.51 0 0 -49.51 -49.51 0 0 49.51zm0 -198.05l49.51 0 0 -49.5 -49.51 0 0 49.5zm0 0z"/>
   <path class="fil0" d="M198.04 901.95l49.51 0 0 -247.55 -49.51 0 0 49.5 -49.5 0 0 49.51 49.5 0 0 148.54zm-198.04 0l49.51 0 0 -148.54 49.51 0 0 -49.51 -49.51 0 0 -49.5 -49.51 0 0 247.55zm99.03 -99.02l49.51 0 0 -49.51 -49.51 0 0 49.51zm0 0z"/>
   <path class="fil0" d="M305.14 901.95l247.55 0 0 -49.51 -198.04 0 0 -49.51 148.52 0 0 -49.51 -148.52 0 0 -49.51 198.04 0 0 -49.5 -247.55 0 0 247.55zm0 0z"/>
   <path class="fil0" d="M709.3 901.95l49.51 0 0 -198.05 99.01 0 0 -49.5 -247.55 0 0 49.5 99.03 0 0 198.05zm0 0z"/>
   <path class="fil0" d="M915.41 901.95l49.51 0 0 -49.51 148.52 0 0 49.51 49.51 0 0 -198.05 -49.51 0 0 99.02 -148.52 0 0 -99.02 -49.51 0 0 198.05zm49.51 -198.05l148.52 0 0 -49.5 -148.52 0 0 49.5zm0 0z"/>
   <path class="fil0" d="M1418.59 802.92l-49.5 0 0 49.51 49.5 0 0 -49.51zm-198.04 0l49.51 0 0 -148.52 -49.51 0 0 148.52zm49.51 49.51l49.51 0 0 -49.51 -49.51 0 0 49.51zm49.51 49.51l49.51 0 0 -49.51 -49.51 0 0 49.51zm99.01 -99.02l49.51 0 0 -148.52 -49.51 0 0 148.52zm0 0z"/>
   <path class="fil0" d="M1525.69 901.95l247.55 0 0 -49.51 -198.04 0 0 -49.51 148.52 0 0 -49.51 -148.52 0 0 -49.51 198.04 0 0 -49.5 -247.55 0 0 247.55zm0 0z"/>
   <path class="fil0" d="M1830.82 901.95l49.51 0 0 -49.51 148.52 0 0 -49.51 -148.52 0 0 -99.02 148.52 0 0 -49.5 -198.04 0 0 247.55zm198.04 0l49.51 0 0 -49.51 -49.51 0 0 49.51zm0 -99.02l49.51 0 0 -99.02 -49.51 0 0 99.02zm0 0z"/>
   <path class="fil0" d="M2185.47 703.9l-49.51 0 0 49.51 49.51 0 0 -49.51zm-49.51 198.05l198.04 0 0 -49.51 -198.04 0 0 49.51zm49.51 -99.02l148.53 0 0 -49.51 -148.53 0 0 49.51zm0 -99.02l198.04 0 0 -49.5 -198.04 0 0 49.5zm148.53 148.54l49.51 0 0 -49.51 -49.51 0 0 49.51zm0 0z"/>
   <path class="fil0" d="M2441.1 901.95l247.55 0 0 -49.51 -198.04 0 0 -49.51 148.52 0 0 -49.51 -148.52 0 0 -49.51 198.04 0 0 -49.5 -247.55 0 0 247.55zm0 0z"/>
  </g>
 </g>
</svg>
