<svg width="308" height="21" viewBox="0 0 308 21" fill="none" xmlns="http://www.w3.org/2000/svg">
<path d="M0.337305 17.44V2.48L2.0973 0.72H16.1773L17.9373 2.48V17.44L16.1773 19.2H2.0973L0.337305 17.44ZM2.3173 2.48V17.44H15.9573V2.48H2.3173ZM4.5173 13.26V6.66L6.4973 4.68H13.7573V6.44H6.4973V13.48H13.7573V15.24H6.4973L4.5173 13.26ZM26.0807 17V1.6H28.0607V8.2H36.2007V1.6H38.1807V17H36.2007V9.96H28.0607V17H26.0807ZM40.709 15.02V6.66L42.689 4.68H51.269V11.5H42.689V15.24H50.829V17H42.689L40.709 15.02ZM42.689 9.96L49.377 9.74V6.44H42.689V9.96ZM65.4556 17H63.4756V6.726L56.3916 17H53.7956V4.68H55.7756V14.954L62.8596 4.68H65.4556V17ZM62.0016 0.499999H64.0256L62.4856 3.14H56.7656L55.2256 0.499999H57.2496L57.9756 1.71H61.2756L62.0016 0.499999ZM68.1042 17V4.68H70.6122L74.7042 10.972L78.7962 4.68H81.3042V17H79.3682V6.88L75.3642 13.04H74.0442L70.0402 6.88V17H68.1042ZM83.7182 15.02V9.96L92.5182 9.74V6.44H84.1582V4.68H92.5182L94.4982 6.66V17H85.6982L83.7182 15.02ZM85.6982 11.72V15.24H92.5182V11.28L85.6982 11.72ZM97.1296 20.08V4.68H106.26L108.24 6.66V15.02L106.26 17H99.1096V20.08H97.1296ZM106.26 6.44H99.1096V15.24H106.26V6.44ZM110.772 17V4.68H112.752V9.718H117.02L120.408 4.68H122.696L118.802 10.356L122.872 17H120.628L117.306 11.478H112.752V17H110.772ZM124.855 17V14.8H126.835V17H124.855ZM129.915 17V1.6H132.423L137.175 9.916L141.927 1.6H144.435V17H142.499V4.02L137.835 12.16H136.515L131.851 4.02V17H129.915ZM146.971 15.02V6.66L148.951 4.68H157.531V11.5H148.951V15.24H157.091V17H148.951L146.971 15.02ZM148.951 9.96L155.639 9.74V6.44H148.951V9.96ZM160.057 2.7L162.037 1.6V5.12H167.757V6.88H162.037V15.24H167.757V17H162.037L160.057 15.02V2.7ZM169.29 15.02V9.96L178.09 9.74V6.44H169.73V4.68H178.09L180.07 6.66V17H171.27L169.29 15.02ZM171.27 11.72V15.24H178.09V11.28L171.27 11.72ZM185.826 17L181.822 1.6H183.846L187.344 15.24H189.72L193.218 1.6H195.242L191.238 17H185.826ZM196.9 15.02V6.66L198.88 4.68H207.46V11.5H198.88V15.24H207.02V17H198.88L196.9 15.02ZM198.88 9.96L205.568 9.74V6.44H198.88V9.96ZM209.987 17V6.66L211.967 4.68H218.567V6.44H211.967V17H209.987ZM220.211 17V15.24H229.011V11.61H220.211V6.66L222.191 4.68H230.991V6.44H222.191V9.85H230.991V15.086L229.077 17H220.211ZM233.402 15.02V6.66L235.382 4.68H243.962V11.5H235.382V15.24H243.522V17H235.382L233.402 15.02ZM235.382 9.96L242.07 9.74V6.44H235.382V9.96ZM264.084 15.24V17H252.204V9.256L262.104 8.156V3.36H252.424V1.6H262.324L264.084 3.36V9.63L254.184 10.73V15.24H264.084ZM266.727 15.24V3.36L268.487 1.6H276.627L278.387 3.36V15.24L276.627 17H268.487L266.727 15.24ZM268.707 3.36V15.24H276.407V3.36H268.707ZM292.916 15.24V17H281.036V9.256L290.936 8.156V3.36H281.256V1.6H291.156L292.916 3.36V9.63L283.016 10.73V15.24H292.916ZM307.439 15.24V17H295.559V9.256L305.459 8.156V3.36H295.779V1.6H305.679L307.439 3.36V9.63L297.539 10.73V15.24H307.439Z" fill="white"/>
</svg>
