<svg width="40" height="25" viewBox="0 0 40 25" fill="none" xmlns="http://www.w3.org/2000/svg">
<path fill-rule="evenodd" clip-rule="evenodd" d="M2.28125 0.8125H37.7188C38.8059 0.8125 39.6875 1.68713 39.6875 2.76563V22.2969C39.6875 23.3754 38.8059 24.25 37.7188 24.25H27.8615C26.3123 24.25 24.9065 23.3485 24.271 21.9465L22.5643 18.1843C22.0789 17.1138 21.0859 16.4375 20 16.4375C18.9141 16.4375 17.9211 17.1138 17.4357 18.1843L15.729 21.9465C15.0935 23.3485 13.6883 24.25 12.1385 24.25H2.28125C1.19413 24.25 0.3125 23.3754 0.3125 22.2969V2.76563C0.3125 1.68713 1.19413 0.8125 2.28125 0.8125ZM6.21872 11.5551C6.21872 13.7126 7.98137 15.4613 10.1562 15.4613C12.3311 15.4613 14.0937 13.7126 14.0937 11.5551C14.0937 9.39746 12.3311 7.6488 10.1562 7.6488C7.98137 7.6488 6.21872 9.39746 6.21872 11.5551ZM25.9062 11.5551C25.9062 13.7126 27.6689 15.4613 29.8437 15.4613C32.0186 15.4613 33.7812 13.7126 33.7812 11.5551C33.7812 9.39746 32.0186 7.6488 29.8437 7.6488C27.6689 7.6488 25.9062 9.39746 25.9062 11.5551Z" fill="black"/>
</svg>
