<svg width="36" height="36" viewBox="0 0 36 36" fill="none" xmlns="http://www.w3.org/2000/svg">
<path fill-rule="evenodd" clip-rule="evenodd" d="M18 36C27.9411 36 36 27.9411 36 18C36 8.05887 27.9411 0 18 0C8.05887 0 0 8.05887 0 18C0 27.9411 8.05887 36 18 36ZM25.9865 9.20187C26.5267 8.98335 27.0491 9.02402 27.3818 9.30823C27.6204 9.51156 27.867 9.92537 27.6896 10.7387L24.782 25.9669C24.7576 26.0303 24.5243 26.5903 23.9411 26.8316C23.7699 26.9022 23.5907 26.9375 23.404 26.9375C23.1623 26.9375 22.909 26.8785 22.6447 26.7605L22.552 26.7047L18.6594 23.6458L16.2481 25.8994C16.0334 26.0692 15.7017 26.1876 15.3681 26.058C14.9881 25.9414 14.7712 25.3748 14.6381 24.9435C14.4412 24.3049 13.604 21.4962 13.2706 20.3779L13.1985 20.136L9.25445 18.7753C9.15599 18.7391 8.3497 18.4254 8.25745 17.6679C8.15412 16.8278 9.15732 16.4507 9.27219 16.4104C9.90374 16.1365 25.4175 9.43157 25.9856 9.20187H25.9865ZM15.3464 24.2553L16.6769 20.6803L24.2165 12.1897L14.0159 19.7866L15.3464 24.2553Z" fill="#C4C4C4"/>
</svg>
