<svg width="36" height="36" viewBox="0 0 36 36" fill="none" xmlns="http://www.w3.org/2000/svg">
<path fill-rule="evenodd" clip-rule="evenodd" d="M18 36C27.9411 36 36 27.9411 36 18C36 8.05887 27.9411 0 18 0C8.05887 0 0 8.05887 0 18C0 27.9411 8.05887 36 18 36ZM8 12C8.1624 20.1201 12.0599 25 18.8931 25H19.2805V20.3544C21.7914 20.6146 23.6901 22.5275 24.4521 25H28C27.0256 21.3043 24.4646 19.2613 22.8656 18.4805C24.4646 17.5175 26.7132 15.1752 27.2503 12H24.0273C23.3277 14.5766 21.2543 16.9189 19.2805 17.1401V12H16.0574V21.005C14.0587 20.4845 11.5353 17.96 11.4229 12H8Z" fill="#C4C4C4"/>
</svg>
